<?xml version="1.0" encoding="utf-8"?>
<!-- Generator: Adobe Illustrator 23.0.4, SVG Export Plug-In . SVG Version: 6.00 Build 0)  -->
<svg version="1.1" id="Layer_1" xmlns="http://www.w3.org/2000/svg" xmlns:xlink="http://www.w3.org/1999/xlink" x="0px" y="0px"
	 viewBox="0 0 123 33" style="enable-background:new 0 0 123 33;" xml:space="preserve">
<style type="text/css">
	.st0{fill-rule:evenodd;clip-rule:evenodd;fill:#FFFFFF;}
</style>
<title>8CDC3CFF-9D82-4905-8F63-19B46EEC6B17</title>
<desc>Created with sketchtool.</desc>
<g id="Home">
	<g id="Home---Desktop" transform="translate(-83.000000, -19.000000)">
		<g transform="translate(-1.000000, 1.000000)">
			<g id="Logo---Colored">
				<g transform="translate(84.000000, 18.558824)">
					<path id="Fill-1" class="st0" d="M26.8,15.9c0,3.5-2.9,6.4-6.4,6.4h-3.7c-0.4,0-0.7-0.3-0.7-0.7v-5.7c0-2.1-1.7-3.8-3.9-3.8
						c-2.2,0-3.9,1.7-3.9,3.8v5.7c0,0.4-0.3,0.7-0.7,0.7h-1c-0.4,0-0.7-0.3-0.7-0.7v-5.7c0-3.5,2.9-6.4,6.4-6.4
						c3.5,0,6.4,2.8,6.4,6.4v3.8h1.9c2.2,0,3.9-1.7,3.9-3.8v-5.7c0-0.4,0.3-0.7,0.7-0.7h1c0.4,0,0.7,0.3,0.7,0.7v0V15.9z M16,0.4
						C7.3,0.4,0.4,7.3,0.4,16s7,15.6,15.6,15.6s15.6-7,15.6-15.6S24.7,0.4,16,0.4L16,0.4z"/>
					<path id="Fill-3" class="st0" d="M45.1,9.6c-3.5,0-6.4,2.8-6.4,6.4v6c0,0.2,0.2,0.4,0.4,0.4h0.5c0.2,0,0.4-0.2,0.4-0.4v-6
						c0-2.8,2.3-5.1,5.1-5.1s5.1,2.3,5.1,5.1v6c0,0.2,0.2,0.4,0.4,0.4h0.5c0.2,0,0.4-0.2,0.4-0.4v-6C51.5,12.4,48.7,9.6,45.1,9.6"/>
					<path id="Fill-5" class="st0" d="M60.1,21.1c-2.8,0-5.1-2.3-5.1-5.1s2.3-5.1,5.1-5.1s5.1,2.3,5.1,5.1
						C65.2,18.8,62.9,21.1,60.1,21.1 M66.5,22v-6c0-3.5-2.9-6.4-6.4-6.4c-3.5,0-6.4,2.8-6.4,6.4c0,3.5,2.9,6.4,6.4,6.4
						c2.1,0,3.9-1,5.1-2.5V22c0,0.2,0.2,0.4,0.4,0.4h0.5C66.3,22.3,66.5,22.2,66.5,22"/>
					<path id="Fill-7" class="st0" d="M101.3,21.1c-2.8,0-5.1-2.3-5.1-5.1s2.3-5.1,5.1-5.1c2.8,0,5.1,2.3,5.1,5.1
						S104.1,21.1,101.3,21.1L101.3,21.1z M107.7,16L107.7,16c0-3.5-2.9-6.4-6.4-6.4c-3.5,0-6.4,2.8-6.4,6.4c0,3.5,2.9,6.4,6.4,6.4
						c2.1,0,3.9-1,5.1-2.5V22c0,0.2,0.2,0.4,0.4,0.4h0.5c0.2,0,0.4-0.2,0.4-0.4V16z"/>
					<path id="Fill-9" class="st0" d="M94.2,10c0-0.2-0.2-0.4-0.4-0.4h-0.5c-0.2,0-0.4,0.2-0.4,0.4v6c0,2.8-2.3,5.1-5.2,5.1h-3.6V16
						v-6c0-0.2-0.2-0.4-0.4-0.4h-0.5c-0.2,0-0.4,0.2-0.4,0.4v6v5.1v1.3H88c3.5-0.1,6.2-2.9,6.2-6.4V10z"/>
					<path id="Fill-11" class="st0" d="M74.3,9.6c-3.5,0-6.4,2.8-6.4,6.4v6c0,0.2,0.2,0.4,0.4,0.4h0.5c0.2,0,0.4-0.2,0.4-0.4v-6
						c0-2.8,2.3-5.1,5.1-5.1c2.7,0,4.9,2.1,5.1,4.7c0,0.2,0.2,0.4,0.4,0.4h0.5c0.2,0,0.4-0.2,0.4-0.4C80.5,12.2,77.7,9.6,74.3,9.6"
						/>
					<path id="Fill-13" class="st0" d="M116.3,9.6c-3.5,0-6.4,2.8-6.4,6.3v6c0,0.2,0.2,0.4,0.4,0.4h0.5c0.2,0,0.4-0.2,0.4-0.4v-6
						c0-2.8,2.3-5.1,5.1-5.1c2.7,0,4.9,2.1,5.1,4.7c0,0.2,0.2,0.4,0.4,0.4h0.5c0.2,0,0.4-0.2,0.4-0.4
						C122.5,12.2,119.7,9.6,116.3,9.6"/>
				</g>
			</g>
		</g>
	</g>
</g>
</svg>
