<?xml version="1.0" encoding="iso-8859-1"?>
<!-- Generator: Adobe Illustrator 18.1.1, SVG Export Plug-In . SVG Version: 6.00 Build 0)  -->
<svg version="1.1" id="Capa_1" xmlns="http://www.w3.org/2000/svg" xmlns:xlink="http://www.w3.org/1999/xlink" x="0px" y="0px"
	 viewBox="0 0 439.361 439.361" style="enable-background:new 0 0 439.361 439.361;" xml:space="preserve">
<g>
	<g id="Layer_1_93_">
		<path d="M364.976,362.233c-4.056-8.404-13.289-13.069-25.999-13.136c-7.736-0.04-16.413,1.646-25.104,4.821l-83.727-173.53
			l61.25-126.943c0.009,0.82,0.018,1.648,0.024,2.498c0.062,7.93,0.125,16.129,2.84,23.813c2.043,5.79,5.813,10.147,10.898,12.602
			c0.001,0.001,0.001,0.001,0.002,0.001c2.829,1.363,6.01,2.116,9.455,2.232c10.959,0.375,29.311-4.032,31.902-17.449
			c2.872-14.885-13.504-24.455-20.498-28.541l-0.886-0.518c-5.542-3.233-11.272-6.577-15.747-10.992
			c-1.335-1.314-2.506-2.73-3.52-4.237l6.501-13.475c3.237-6.709,0.412-14.801-6.297-18.038c-6.709-3.237-14.801-0.412-18.038,6.297
			l-12.56,26.032c-1.644,3.408-1.717,7.171-0.519,10.476L219.682,158.7L164.411,44.146c1.198-3.305,1.125-7.067-0.52-10.476
			L151.33,7.638c-3.237-6.709-11.329-9.534-18.038-6.297c-6.709,3.237-9.534,11.329-6.297,18.038l6.5,13.475
			c-1.014,1.507-2.184,2.923-3.519,4.237c-4.475,4.415-10.205,7.759-15.747,10.992l-0.885,0.518
			c-6.994,4.086-23.371,13.656-20.499,28.541c2.591,13.417,20.942,17.824,31.902,17.449c3.444-0.116,6.626-0.869,9.455-2.232
			c0.001,0,0.001,0,0.001,0c5.086-2.455,8.855-6.813,10.899-12.603c2.715-7.685,2.778-15.884,2.84-23.813
			c0.007-0.85,0.015-1.678,0.024-2.498l61.249,126.943l-83.727,173.53c-8.69-3.176-17.367-4.861-25.103-4.821
			c-12.71,0.066-21.944,4.731-25.999,13.136c-4.056,8.405-1.961,18.536,5.897,28.526c4.269,5.428,10.087,10.583,16.899,15.061
			l-4.051,29.979c-0.183,1.347,0.522,2.658,1.748,3.25c1.224,0.59,2.69,0.326,3.632-0.654l20.944-21.828
			c7.744,2.547,15.4,3.892,22.305,3.855c12.71-0.065,21.943-4.73,25.999-13.137c4.056-8.404,1.96-18.534-5.898-28.525
			c-4.782-6.08-11.501-11.823-19.396-16.648l77.217-160.035l77.214,160.033c-7.895,4.825-14.615,10.568-19.396,16.648
			c-7.858,9.991-9.953,20.121-5.897,28.525c4.055,8.406,13.288,13.071,25.999,13.137c6.904,0.036,14.561-1.309,22.304-3.855
			l20.945,21.828c0.941,0.98,2.408,1.244,3.632,0.654c1.226-0.592,1.93-1.903,1.748-3.25l-4.051-29.979
			c6.813-4.478,12.63-9.633,16.899-15.061C366.937,380.769,369.031,370.638,364.976,362.233z M313.443,55.691
			c1.621,1.001,3.3,1.954,4.925,2.876c4.066,2.308,7.908,4.487,11.055,7.431c3.521,3.291,5.236,6.268,4.828,8.382
			c-0.548,2.836-4.069,5.001-10.764,6.62c-3.769,0.91-8.528,1.8-11.918,0.585c-0.29-0.104-0.573-0.222-0.841-0.352
			c-4.473-2.158-5.617-8.019-6.146-13.467c-0.403-4.161-0.48-8.473-0.555-12.643c-0.036-2.038-0.073-4.108-0.148-6.19
			C306.582,51.179,309.708,53.382,313.443,55.691z M135.337,55.123c-0.074,4.17-0.151,8.481-0.555,12.643
			c-0.529,5.448-1.673,11.309-6.146,13.467c-0.268,0.13-0.551,0.248-0.841,0.352c-3.39,1.215-8.149,0.325-11.918-0.585
			c-6.695-1.619-10.216-3.784-10.764-6.62c-0.409-2.114,1.307-5.091,4.827-8.382c3.147-2.943,6.989-5.123,11.056-7.431
			c1.625-0.922,3.303-1.875,4.925-2.876c3.735-2.309,6.86-4.512,9.563-6.758C135.41,51.015,135.372,53.085,135.337,55.123z
			 M150.784,399.093c-1.263,2.618-15.13,5.258-34.623-4.148c-19.494-9.405-26.059-21.902-24.795-24.52
			c1.064-2.206,11.088-4.429,25.888,0.565l-7.681,15.918l16.979,8.19l7.679-15.918C147.35,387.659,151.848,396.888,150.784,399.093z
			 M323.203,394.945c-19.493,9.406-33.36,6.767-34.623,4.148c-1.064-2.205,3.434-11.435,16.553-19.912l7.68,15.918l16.978-8.19
			l-7.68-15.918c14.8-4.994,24.824-2.771,25.888-0.565C349.262,373.042,342.697,385.539,323.203,394.945z"/>
	</g>
</g>
<g>
</g>
<g>
</g>
<g>
</g>
<g>
</g>
<g>
</g>
<g>
</g>
<g>
</g>
<g>
</g>
<g>
</g>
<g>
</g>
<g>
</g>
<g>
</g>
<g>
</g>
<g>
</g>
<g>
</g>
</svg>
