<svg xmlns="http://www.w3.org/2000/svg" viewBox="0 0 211.24 211.24"><defs><style>.a{fill:none;}.b{fill:#5f676f;}</style></defs><title>tracking</title><rect class="a" width="211.24" height="211.24"/><path class="b" d="M150.8,174.63H60.44a7.8,7.8,0,0,1-7.78-7.79V54.72a7.79,7.79,0,0,1,7.78-7.78H150.8a7.8,7.8,0,0,1,7.79,7.78V166.84A7.81,7.81,0,0,1,150.8,174.63Zm-90.36-123a3.1,3.1,0,0,0-3.1,3.1V166.84a3.1,3.1,0,0,0,3.1,3.1H150.8a3.1,3.1,0,0,0,3.1-3.1V54.72a3.1,3.1,0,0,0-3.1-3.1Z"/><path class="b" d="M121.88,70.79H86a10,10,0,0,1-9.95-10V46.57a10,10,0,0,1,9.95-10h35.89a10,10,0,0,1,10,10V60.84A10,10,0,0,1,121.88,70.79ZM86,41.3a5.28,5.28,0,0,0-5.27,5.27V60.84A5.28,5.28,0,0,0,86,66.11h35.89a5.29,5.29,0,0,0,5.28-5.27V46.57a5.29,5.29,0,0,0-5.28-5.27Z"/><rect class="b" x="96.54" y="80.81" width="37.28" height="4.06"/><rect class="b" x="96.54" y="88.4" width="24.74" height="4.06"/><polygon class="b" points="89.33 77.06 82.26 90.9 78.81 84.14 75.72 85.52 80.35 94.6 80.38 94.59 80.37 94.61 83.46 95.98 92.42 78.43 89.33 77.06"/><rect class="b" x="96.54" y="105.92" width="37.28" height="4.06"/><rect class="b" x="96.54" y="113.51" width="24.74" height="4.06"/><polygon class="b" points="89.33 102.17 82.26 116.01 78.81 109.26 75.72 110.63 80.35 119.71 80.38 119.7 80.37 119.72 83.46 121.09 92.42 103.55 89.33 102.17"/><rect class="b" x="96.54" y="131.03" width="37.28" height="4.06"/><rect class="b" x="96.54" y="138.63" width="24.74" height="4.06"/><polygon class="b" points="89.33 127.28 82.26 141.13 78.81 134.37 75.72 135.74 80.35 144.82 80.38 144.81 80.37 144.83 83.46 146.2 92.42 128.66 89.33 127.28"/><path class="b" d="M62,56.3v109h65.39l21.81-21.81V56.3Zm66.92,100.81V144.76h12.35ZM66.71,61h77.83v79.82H125v19.77H66.71Z"/></svg>